<svg version="1.1" xmlns="http://www.w3.org/2000/svg" xmlns:xlink="http://www.w3.org/1999/xlink" x="0px" y="0px"
	 viewBox="0 0 57.702 57.702" style="enable-background:new 0 0 57.702 57.702;" xml:space="preserve">
<path style="fill:#38454F;" d="M24.851,36.851h21c0.339,0,0.669,0.036,0.99,0.101c0.001-0.034,0.01-0.066,0.01-0.101
	c0-2.2-1.8-4-4-4h-15c-2.2,0-4,1.8-4,4c0,0.034,0.009,0.066,0.01,0.101C24.181,36.886,24.512,36.851,24.851,36.851z"/>
<path style="fill:#283238;" d="M50.749,40.851c-0.467-2.275-2.491-4-4.898-4h-21c-2.408,0-4.432,1.725-4.898,4H50.749z"/>
<g>
	<path style="fill:#E0E1E2;" d="M38.442,32.851l3.29-10.031c-1.742-0.102-3.367-0.625-4.779-1.474L33.18,32.851H38.442z"/>
</g>
<path style="fill:#E7ECED;" d="M56.873,48.851H0.828c-0.512-0.036-0.901-0.495-0.817-1l1.293-3.72
	c0.315-1.893,1.953-3.28,3.872-3.28h47.35c1.919,0,3.556,1.387,3.872,3.28l1.293,3.72C57.774,48.355,57.385,48.815,56.873,48.851z"
	/>
<path style="fill:#DD352E;" d="M11.851,36.851h-2c-2.2,0-4,1.8-4,4h10C15.851,38.651,14.051,36.851,11.851,36.851z"/>
<path style="fill:#546A79;" d="M28,55.851h-2c0-1.103-0.897-2-2-2H14c-2.415,0-4.435-1.721-4.899-4H9v-4h2v3c0,1.654,1.346,3,3,3h10
	C26.206,51.851,28,53.645,28,55.851z"/>
<circle style="fill:#ED8A19;" cx="42.351" cy="12.351" r="10.5"/>
<path style="fill:#EBBA16;" d="M36.953,12.851c-0.552,0-1-0.447-1-1c0-3.309,2.691-6,6-6c0.552,0,1,0.447,1,1s-0.448,1-1,1
	c-2.206,0-4,1.794-4,4C37.953,12.404,37.505,12.851,36.953,12.851z"/>
</svg>